<svg width="1200" height="760" viewBox="0 0 1200 760" fill="none" xmlns="http://www.w3.org/2000/svg">
  <rect width="1200" height="760" rx="32" fill="#FFFFFF"/>
  <rect x="64" y="62" width="1072" height="636" rx="24" fill="#F6F8FB" stroke="#DFE5EC"/>
  <rect x="104" y="102" width="992" height="80" rx="16" fill="#FFFFFF" stroke="#DFE5EC"/>
  <circle cx="146" cy="142" r="10" fill="#F75A48"/>
  <circle cx="180" cy="142" r="10" fill="#FBB10E"/>
  <circle cx="214" cy="142" r="10" fill="#1ABCD0"/>
  <rect x="804" y="128" width="232" height="28" rx="8" fill="#EAF4FA"/>
  <rect x="104" y="222" width="262" height="174" rx="18" fill="#FFFFFF" stroke="#DFE5EC"/>
  <rect x="144" y="266" width="126" height="16" rx="8" fill="#1389C6"/>
  <rect x="144" y="304" width="178" height="12" rx="6" fill="#DDE8EF"/>
  <rect x="144" y="334" width="136" height="12" rx="6" fill="#DDE8EF"/>
  <rect x="144" y="364" width="194" height="12" rx="6" fill="#DDE8EF"/>
  <rect x="464" y="202" width="272" height="214" rx="22" fill="#1389C6"/>
  <rect x="512" y="258" width="176" height="24" rx="12" fill="#FFFFFF" opacity="0.92"/>
  <rect x="512" y="306" width="132" height="18" rx="9" fill="#FFFFFF" opacity="0.72"/>
  <rect x="512" y="344" width="156" height="18" rx="9" fill="#FFFFFF" opacity="0.72"/>
  <rect x="830" y="222" width="266" height="174" rx="18" fill="#FFFFFF" stroke="#DFE5EC"/>
  <rect x="876" y="262" width="80" height="80" rx="16" fill="#EAF9FB"/>
  <path d="M898 304H934" stroke="#1ABCD0" stroke-width="8" stroke-linecap="round"/>
  <path d="M916 286V322" stroke="#1ABCD0" stroke-width="8" stroke-linecap="round"/>
  <rect x="974" y="276" width="74" height="12" rx="6" fill="#DDE8EF"/>
  <rect x="974" y="304" width="92" height="12" rx="6" fill="#DDE8EF"/>
  <rect x="974" y="332" width="52" height="12" rx="6" fill="#DDE8EF"/>
  <path d="M366 308C414 272 426 286 464 306" stroke="#1389C6" stroke-width="5" stroke-linecap="round" stroke-dasharray="12 14"/>
  <path d="M736 306C776 284 788 282 830 306" stroke="#1ABCD0" stroke-width="5" stroke-linecap="round" stroke-dasharray="12 14"/>
  <rect x="104" y="468" width="992" height="158" rx="20" fill="#FFFFFF" stroke="#DFE5EC"/>
  <rect x="146" y="520" width="220" height="16" rx="8" fill="#1ABCD0"/>
  <rect x="146" y="558" width="312" height="14" rx="7" fill="#DDE8EF"/>
  <rect x="146" y="590" width="258" height="14" rx="7" fill="#DDE8EF"/>
  <path d="M594 578C638 512 700 620 752 550C792 496 842 524 884 500" stroke="#FA740D" stroke-width="8" stroke-linecap="round" fill="none"/>
  <circle cx="594" cy="578" r="10" fill="#FA740D"/>
  <circle cx="752" cy="550" r="10" fill="#FA740D"/>
  <circle cx="884" cy="500" r="10" fill="#FA740D"/>
</svg>
