<svg width="180" height="180" viewBox="0 0 180 180" fill="none" xmlns="http://www.w3.org/2000/svg">
  <rect width="180" height="180" rx="40" fill="#1A1A1A"/>
  <path d="M42.75 90C42.75 62.775 64.62 40.725 91.62 40.725C111.6 40.725 128.655 52.65 136.215 69.705H113.625C108.585 63.18 100.575 59.175 91.62 59.175C75.51 59.175 62.46 72.81 62.46 90C62.46 107.28 75.51 120.96 91.62 120.96C100.935 120.96 109.26 116.595 114.435 109.35H136.575C129.33 127.26 111.735 139.86 91.62 139.86C64.62 139.86 42.75 117.36 42.75 90Z" fill="#1389C6"/>
  <path d="M91.71 69.435H137.52V84.105H91.71C88.2 84.105 85.32 86.715 85.32 90C85.32 93.375 88.2 95.985 91.71 95.985H137.52V110.61H91.71C79.56 110.61 69.75 101.52 69.75 90C69.75 78.57 79.56 69.435 91.71 69.435Z" fill="#1ABCD0"/>
  <circle cx="137.7" cy="90" r="9.225" fill="#FA740D"/>
</svg>
